<?xml version="1.0" encoding="UTF-8"?>
<svg xmlns="http://www.w3.org/2000/svg" viewBox="0 0 64 64" width="64" height="64">
  <defs>
    <radialGradient id="g" cx="30%" cy="25%" r="80%">
      <stop offset="0%" stop-color="#7c3aed"/>
      <stop offset="100%" stop-color="#4f46e5"/>
    </radialGradient>
    <filter id="s" x="-20%" y="-20%" width="140%" height="140%">
      <feDropShadow dx="0" dy="2" stdDeviation="2" flood-color="#000" flood-opacity="0.25"/>
    </filter>
  </defs>

  <!-- background circle -->
  <circle cx="32" cy="32" r="30" fill="url(#g)" />

  <!-- chef hat base -->
  <g transform="translate(4,6) scale(0.9)" filter="url(#s)">
    <path d="M18 28c-6 0-11-4-11-9 0-6 6-11 13-11 1 0 2 0 3 .3C26 8 28 6 32 6c6 0 10 5 10 10 0 5-5 9-11 9H18z" fill="#fff"/>
    <rect x="14" y="28" width="24" height="6" rx="2" fill="#fff" />
  </g>

  <!-- sparkle left -->
  <g transform="translate(8,6)">
    <polygon points="6,8 8.5,10 11,8 8.5,6" fill="#ffd166" opacity="0.95"/>
    <circle cx="8.5" cy="8" r="1.2" fill="#fff" opacity="0.6"/>
  </g>

  <!-- sparkle right -->
  <g transform="translate(40,4)">
    <polygon points="4,3 5.5,6 8,6 6,8 6,5 4,5" fill="#ffd166" opacity="0.95"/>
  </g>

  <!-- small accent star -->
  <g transform="translate(46,38)">
    <path d="M3 0 L4 2 L6 3 L4 4 L3 6 L2 4 L0 3 L2 2 Z" fill="#fff3bf" opacity="0.95"/>
  </g>

</svg>
